<mxfile host="app.diagrams.net" modified="2021-01-25T22:07:14.147Z" agent="5.0 (Macintosh; Intel Mac OS X 11_1_0) AppleWebKit/537.36 (KHTML, like Gecko) Chrome/87.0.4280.141 Safari/537.36" etag="0oZQvvRjC4tgfR9qfYfW" version="14.2.7" type="github">
  <diagram id="YcLZW-i6NJECOvsvgVJo" name="Page-1">
    <mxGraphModel dx="1791" dy="768" grid="1" gridSize="10" guides="1" tooltips="1" connect="1" arrows="1" fold="1" page="1" pageScale="1" pageWidth="850" pageHeight="1100" math="0" shadow="0">
      <root>
        <mxCell id="0" />
        <mxCell id="1" parent="0" />
        <mxCell id="TEuHIhI9oA07CfpRSKko-1" value="Home" style="rounded=1;whiteSpace=wrap;html=1;fillColor=#e1d5e7;strokeColor=#9673a6;" parent="1" vertex="1">
          <mxGeometry x="320" y="40" width="120" height="40" as="geometry" />
        </mxCell>
        <mxCell id="TEuHIhI9oA07CfpRSKko-23" style="edgeStyle=orthogonalEdgeStyle;rounded=0;orthogonalLoop=1;jettySize=auto;html=1;exitX=0.5;exitY=0;exitDx=0;exitDy=0;entryX=0.5;entryY=1;entryDx=0;entryDy=0;endArrow=none;endFill=0;" parent="1" source="TEuHIhI9oA07CfpRSKko-2" target="TEuHIhI9oA07CfpRSKko-1" edge="1">
          <mxGeometry relative="1" as="geometry" />
        </mxCell>
        <mxCell id="TEuHIhI9oA07CfpRSKko-2" value="About Me" style="rounded=1;whiteSpace=wrap;html=1;fillColor=#f8cecc;strokeColor=#b85450;" parent="1" vertex="1">
          <mxGeometry x="-201" y="120" width="120" height="40" as="geometry" />
        </mxCell>
        <mxCell id="TEuHIhI9oA07CfpRSKko-38" value="" style="edgeStyle=orthogonalEdgeStyle;rounded=0;orthogonalLoop=1;jettySize=auto;html=1;endArrow=none;endFill=0;" parent="1" source="TEuHIhI9oA07CfpRSKko-3" target="TEuHIhI9oA07CfpRSKko-34" edge="1">
          <mxGeometry relative="1" as="geometry" />
        </mxCell>
        <mxCell id="4KkldvgAypm87cWJKorb-4" style="edgeStyle=orthogonalEdgeStyle;rounded=0;orthogonalLoop=1;jettySize=auto;html=1;exitX=0.5;exitY=0;exitDx=0;exitDy=0;endArrow=none;endFill=0;" edge="1" parent="1" source="TEuHIhI9oA07CfpRSKko-3">
          <mxGeometry relative="1" as="geometry">
            <mxPoint x="260" y="100" as="targetPoint" />
          </mxGeometry>
        </mxCell>
        <mxCell id="TEuHIhI9oA07CfpRSKko-3" value="Experience&lt;span style=&quot;color: rgba(0 , 0 , 0 , 0) ; font-family: monospace ; font-size: 0px&quot;&gt;%3CmxGraphModel%3E%3Croot%3E%3CmxCell%20id%3D%220%22%2F%3E%3CmxCell%20id%3D%221%22%20parent%3D%220%22%2F%3E%3CmxCell%20id%3D%222%22%20value%3D%22About%20Me%22%20style%3D%22rounded%3D1%3BwhiteSpace%3Dwrap%3Bhtml%3D1%3B%22%20vertex%3D%221%22%20parent%3D%221%22%3E%3CmxGeometry%20x%3D%22120%22%20y%3D%22120%22%20width%3D%22120%22%20height%3D%2240%22%20as%3D%22geometry%22%2F%3E%3C%2FmxCell%3E%3C%2Froot%3E%3C%2FmxGraphModel%3E&lt;/span&gt;" style="rounded=1;whiteSpace=wrap;html=1;fillColor=#d5e8d4;strokeColor=#82b366;" parent="1" vertex="1">
          <mxGeometry x="200" y="120" width="120" height="40" as="geometry" />
        </mxCell>
        <mxCell id="TEuHIhI9oA07CfpRSKko-48" value="" style="edgeStyle=orthogonalEdgeStyle;rounded=0;orthogonalLoop=1;jettySize=auto;html=1;endArrow=none;endFill=0;" parent="1" source="TEuHIhI9oA07CfpRSKko-4" target="TEuHIhI9oA07CfpRSKko-47" edge="1">
          <mxGeometry relative="1" as="geometry" />
        </mxCell>
        <mxCell id="4KkldvgAypm87cWJKorb-6" style="edgeStyle=orthogonalEdgeStyle;rounded=0;orthogonalLoop=1;jettySize=auto;html=1;exitX=0.5;exitY=0;exitDx=0;exitDy=0;entryX=0.5;entryY=1;entryDx=0;entryDy=0;endArrow=none;endFill=0;" edge="1" parent="1" source="TEuHIhI9oA07CfpRSKko-4" target="TEuHIhI9oA07CfpRSKko-1">
          <mxGeometry relative="1" as="geometry">
            <Array as="points">
              <mxPoint x="540" y="100" />
              <mxPoint x="380" y="100" />
            </Array>
          </mxGeometry>
        </mxCell>
        <mxCell id="TEuHIhI9oA07CfpRSKko-4" value="Projects" style="rounded=1;whiteSpace=wrap;html=1;fillColor=#dae8fc;strokeColor=#6c8ebf;" parent="1" vertex="1">
          <mxGeometry x="480" y="120" width="120" height="40" as="geometry" />
        </mxCell>
        <mxCell id="4KkldvgAypm87cWJKorb-7" style="edgeStyle=orthogonalEdgeStyle;rounded=0;orthogonalLoop=1;jettySize=auto;html=1;exitX=0.5;exitY=0;exitDx=0;exitDy=0;endArrow=none;endFill=0;" edge="1" parent="1" source="TEuHIhI9oA07CfpRSKko-7">
          <mxGeometry relative="1" as="geometry">
            <mxPoint x="860" y="100" as="targetPoint" />
          </mxGeometry>
        </mxCell>
        <mxCell id="TEuHIhI9oA07CfpRSKko-7" value="Contact" style="rounded=1;whiteSpace=wrap;html=1;fillColor=#fff2cc;strokeColor=#d6b656;" parent="1" vertex="1">
          <mxGeometry x="800" y="120" width="120" height="40" as="geometry" />
        </mxCell>
        <mxCell id="4KkldvgAypm87cWJKorb-9" style="edgeStyle=orthogonalEdgeStyle;rounded=0;orthogonalLoop=1;jettySize=auto;html=1;exitX=0.5;exitY=0;exitDx=0;exitDy=0;endArrow=none;endFill=0;" edge="1" parent="1" source="TEuHIhI9oA07CfpRSKko-9">
          <mxGeometry relative="1" as="geometry">
            <mxPoint x="860" y="180" as="targetPoint" />
          </mxGeometry>
        </mxCell>
        <mxCell id="TEuHIhI9oA07CfpRSKko-9" value="Email" style="rounded=1;whiteSpace=wrap;html=1;fillColor=#fff2cc;strokeColor=#d6b656;" parent="1" vertex="1">
          <mxGeometry x="880" y="200" width="120" height="40" as="geometry" />
        </mxCell>
        <mxCell id="4KkldvgAypm87cWJKorb-8" style="edgeStyle=orthogonalEdgeStyle;rounded=0;orthogonalLoop=1;jettySize=auto;html=1;exitX=0.5;exitY=0;exitDx=0;exitDy=0;entryX=0.5;entryY=1;entryDx=0;entryDy=0;endArrow=none;endFill=0;" edge="1" parent="1" source="TEuHIhI9oA07CfpRSKko-10" target="TEuHIhI9oA07CfpRSKko-7">
          <mxGeometry relative="1" as="geometry" />
        </mxCell>
        <mxCell id="TEuHIhI9oA07CfpRSKko-10" value="Social Media" style="rounded=1;whiteSpace=wrap;html=1;fillColor=#fff2cc;strokeColor=#d6b656;" parent="1" vertex="1">
          <mxGeometry x="720" y="200" width="120" height="40" as="geometry" />
        </mxCell>
        <mxCell id="4KkldvgAypm87cWJKorb-11" style="edgeStyle=orthogonalEdgeStyle;rounded=0;orthogonalLoop=1;jettySize=auto;html=1;exitX=0.5;exitY=0;exitDx=0;exitDy=0;endArrow=none;endFill=0;" edge="1" parent="1" source="TEuHIhI9oA07CfpRSKko-16">
          <mxGeometry relative="1" as="geometry">
            <mxPoint x="-140" y="180" as="targetPoint" />
          </mxGeometry>
        </mxCell>
        <mxCell id="TEuHIhI9oA07CfpRSKko-16" value="Academic" style="rounded=1;whiteSpace=wrap;html=1;fillColor=#f8cecc;strokeColor=#b85450;" parent="1" vertex="1">
          <mxGeometry x="-120" y="200" width="120" height="40" as="geometry" />
        </mxCell>
        <mxCell id="4KkldvgAypm87cWJKorb-10" style="edgeStyle=orthogonalEdgeStyle;rounded=0;orthogonalLoop=1;jettySize=auto;html=1;exitX=0.5;exitY=0;exitDx=0;exitDy=0;entryX=0.5;entryY=1;entryDx=0;entryDy=0;endArrow=none;endFill=0;" edge="1" parent="1" source="TEuHIhI9oA07CfpRSKko-18" target="TEuHIhI9oA07CfpRSKko-2">
          <mxGeometry relative="1" as="geometry" />
        </mxCell>
        <mxCell id="TEuHIhI9oA07CfpRSKko-18" value="Bio" style="rounded=1;whiteSpace=wrap;html=1;fillColor=#f8cecc;strokeColor=#b85450;" parent="1" vertex="1">
          <mxGeometry x="-280" y="200" width="120" height="40" as="geometry" />
        </mxCell>
        <mxCell id="4KkldvgAypm87cWJKorb-12" style="edgeStyle=orthogonalEdgeStyle;rounded=0;orthogonalLoop=1;jettySize=auto;html=1;exitX=0.5;exitY=0;exitDx=0;exitDy=0;entryX=0.5;entryY=1;entryDx=0;entryDy=0;endArrow=none;endFill=0;" edge="1" parent="1" source="TEuHIhI9oA07CfpRSKko-25" target="TEuHIhI9oA07CfpRSKko-16">
          <mxGeometry relative="1" as="geometry" />
        </mxCell>
        <mxCell id="TEuHIhI9oA07CfpRSKko-25" value="Coursework" style="rounded=1;whiteSpace=wrap;html=1;fillColor=#f8cecc;strokeColor=#b85450;" parent="1" vertex="1">
          <mxGeometry x="-201" y="280" width="120" height="40" as="geometry" />
        </mxCell>
        <mxCell id="4KkldvgAypm87cWJKorb-13" style="edgeStyle=orthogonalEdgeStyle;rounded=0;orthogonalLoop=1;jettySize=auto;html=1;exitX=0.5;exitY=0;exitDx=0;exitDy=0;endArrow=none;endFill=0;" edge="1" parent="1" source="TEuHIhI9oA07CfpRSKko-26">
          <mxGeometry relative="1" as="geometry">
            <mxPoint x="-60" y="260" as="targetPoint" />
          </mxGeometry>
        </mxCell>
        <mxCell id="TEuHIhI9oA07CfpRSKko-26" value="Skills" style="rounded=1;whiteSpace=wrap;html=1;fillColor=#f8cecc;strokeColor=#b85450;" parent="1" vertex="1">
          <mxGeometry x="-40" y="280" width="120" height="40" as="geometry" />
        </mxCell>
        <mxCell id="4KkldvgAypm87cWJKorb-14" style="edgeStyle=orthogonalEdgeStyle;rounded=0;orthogonalLoop=1;jettySize=auto;html=1;exitX=0.5;exitY=0;exitDx=0;exitDy=0;entryX=0.5;entryY=1;entryDx=0;entryDy=0;endArrow=none;endFill=0;" edge="1" parent="1" source="TEuHIhI9oA07CfpRSKko-27" target="TEuHIhI9oA07CfpRSKko-26">
          <mxGeometry relative="1" as="geometry" />
        </mxCell>
        <mxCell id="TEuHIhI9oA07CfpRSKko-27" value="Hard Skills" style="rounded=1;whiteSpace=wrap;html=1;fillColor=#f8cecc;strokeColor=#b85450;" parent="1" vertex="1">
          <mxGeometry x="-120" y="360" width="120" height="40" as="geometry" />
        </mxCell>
        <mxCell id="4KkldvgAypm87cWJKorb-15" style="edgeStyle=orthogonalEdgeStyle;rounded=0;orthogonalLoop=1;jettySize=auto;html=1;exitX=0.5;exitY=0;exitDx=0;exitDy=0;endArrow=none;endFill=0;" edge="1" parent="1" source="TEuHIhI9oA07CfpRSKko-28">
          <mxGeometry relative="1" as="geometry">
            <mxPoint x="20" y="330" as="targetPoint" />
          </mxGeometry>
        </mxCell>
        <mxCell id="TEuHIhI9oA07CfpRSKko-28" value="Soft Skills" style="rounded=1;whiteSpace=wrap;html=1;fillColor=#f8cecc;strokeColor=#b85450;" parent="1" vertex="1">
          <mxGeometry x="40" y="360" width="120" height="40" as="geometry" />
        </mxCell>
        <mxCell id="TEuHIhI9oA07CfpRSKko-40" value="" style="edgeStyle=orthogonalEdgeStyle;rounded=0;orthogonalLoop=1;jettySize=auto;html=1;endArrow=none;endFill=0;" parent="1" source="TEuHIhI9oA07CfpRSKko-34" target="TEuHIhI9oA07CfpRSKko-39" edge="1">
          <mxGeometry relative="1" as="geometry" />
        </mxCell>
        <mxCell id="TEuHIhI9oA07CfpRSKko-34" value="Jobs" style="rounded=1;whiteSpace=wrap;html=1;fillColor=#d5e8d4;strokeColor=#82b366;" parent="1" vertex="1">
          <mxGeometry x="200" y="200" width="120" height="40" as="geometry" />
        </mxCell>
        <mxCell id="TEuHIhI9oA07CfpRSKko-39" value="Names" style="rounded=1;whiteSpace=wrap;html=1;fillColor=#d5e8d4;strokeColor=#82b366;" parent="1" vertex="1">
          <mxGeometry x="120" y="280" width="120" height="40" as="geometry" />
        </mxCell>
        <mxCell id="TEuHIhI9oA07CfpRSKko-43" style="edgeStyle=orthogonalEdgeStyle;rounded=0;orthogonalLoop=1;jettySize=auto;html=1;exitX=0.5;exitY=0;exitDx=0;exitDy=0;entryX=0.5;entryY=1;entryDx=0;entryDy=0;endArrow=none;endFill=0;" parent="1" source="TEuHIhI9oA07CfpRSKko-41" target="TEuHIhI9oA07CfpRSKko-34" edge="1">
          <mxGeometry relative="1" as="geometry" />
        </mxCell>
        <mxCell id="TEuHIhI9oA07CfpRSKko-41" value="Descriptions" style="rounded=1;whiteSpace=wrap;html=1;fillColor=#d5e8d4;strokeColor=#82b366;" parent="1" vertex="1">
          <mxGeometry x="280" y="280" width="120" height="40" as="geometry" />
        </mxCell>
        <mxCell id="4KkldvgAypm87cWJKorb-5" style="edgeStyle=orthogonalEdgeStyle;rounded=0;orthogonalLoop=1;jettySize=auto;html=1;exitX=0.5;exitY=0;exitDx=0;exitDy=0;endArrow=none;endFill=0;" edge="1" parent="1" source="TEuHIhI9oA07CfpRSKko-46">
          <mxGeometry relative="1" as="geometry">
            <mxPoint x="540" y="180" as="targetPoint" />
          </mxGeometry>
        </mxCell>
        <mxCell id="TEuHIhI9oA07CfpRSKko-46" value="School Projects" style="rounded=1;whiteSpace=wrap;html=1;fillColor=#dae8fc;strokeColor=#6c8ebf;" parent="1" vertex="1">
          <mxGeometry x="400" y="200" width="120" height="40" as="geometry" />
        </mxCell>
        <mxCell id="TEuHIhI9oA07CfpRSKko-47" value="Side Projects" style="rounded=1;whiteSpace=wrap;html=1;fillColor=#dae8fc;strokeColor=#6c8ebf;" parent="1" vertex="1">
          <mxGeometry x="560" y="200" width="120" height="40" as="geometry" />
        </mxCell>
        <mxCell id="4KkldvgAypm87cWJKorb-2" style="edgeStyle=orthogonalEdgeStyle;rounded=0;orthogonalLoop=1;jettySize=auto;html=1;exitX=0.5;exitY=0;exitDx=0;exitDy=0;endArrow=none;endFill=0;" edge="1" parent="1" source="4KkldvgAypm87cWJKorb-1">
          <mxGeometry relative="1" as="geometry">
            <mxPoint x="540" y="100" as="targetPoint" />
            <Array as="points">
              <mxPoint x="1100" y="100" />
            </Array>
          </mxGeometry>
        </mxCell>
        <mxCell id="4KkldvgAypm87cWJKorb-1" value="Resume" style="rounded=1;whiteSpace=wrap;html=1;fillColor=#ffe6cc;strokeColor=#d79b00;" vertex="1" parent="1">
          <mxGeometry x="1040" y="120" width="120" height="40" as="geometry" />
        </mxCell>
      </root>
    </mxGraphModel>
  </diagram>
</mxfile>
